<svg xmlns="http://www.w3.org/2000/svg" viewBox="0 0 23 6.15512"><g id="logo"><path d="M.5,12.28889A2.60127,2.60127,0,0,1,3.05181,9.50021a2.6008,2.6008,0,0,1,2.55181,2.78868,2.60078,2.60078,0,0,1-2.55181,2.78867A2.60125,2.60125,0,0,1,.5,12.28889Zm4.011,0a1.5493,1.5493,0,0,0-1.45914-1.7256,1.5493,1.5493,0,0,0-1.45914,1.7256,1.5493,1.5493,0,0,0,1.45914,1.72559A1.5493,1.5493,0,0,0,4.511,12.28889Z" transform="translate(-0.5 -8.92244)" fill="#151b4e"/><path d="M10.00779,12.61244v2.37269H8.96841V12.79732c0-.6702-.2665-.97835-.72624-.97835-.4997,0-.85948.35436-.85948,1.117v2.04915H6.3433V10.84061H7.336v.48533A1.46845,1.46845,0,0,1,8.522,10.779C9.36817,10.779,10.00779,11.349,10.00779,12.61244Z" transform="translate(-0.5 -8.92244)" fill="#151b4e"/><path d="M10.65415,14.4536l.36644-.93985a2.49842,2.49842,0,0,0,1.5391.56235c.63964,0,.89945-.24649.89945-.57775,0-1.00916-2.7117-.31586-2.7117-2.31877,0-.91672.63962-1.67937,1.96551-1.67937a2.80591,2.80591,0,0,1,1.619.47761l-.33311.94754a2.37233,2.37233,0,0,0-1.29258-.42369c-.6396,0-.88614.27733-.88614.61629,0,.99376,2.71172.30813,2.71172,2.28794,0,.90131-.64629,1.67166-1.9788,1.67166A3.00876,3.00876,0,0,1,10.65415,14.4536Z" transform="translate(-0.5 -8.92244)" fill="#3baf2a"/><path d="M15.07154,9.59264a.6362.6362,0,0,1,.64629-.6702.62163.62163,0,0,1,.64629.64709.6428.6428,0,0,1-.64629.69333A.63621.63621,0,0,1,15.07154,9.59264Zm.12663,1.248h1.03937v4.14452H15.19817Z" transform="translate(-0.5 -8.92244)" fill="#3baf2a"/><path d="M19.51557,14.78483a1.33779,1.33779,0,0,1-.84613.26192c-.84618,0-1.33921-.50073-1.33921-1.48678V11.8575h-.553v-.92444h.311a.242.242,0,0,0,.242-.242V9.9239h1.03938v1.00916h.8928v.92444h-.8928v1.68706c0,.35439.16656.54694.4464.54694a.63859.63859,0,0,0,.41977-.154Z" transform="translate(-0.5 -8.92244)" fill="#3baf2a"/><path d="M23.48,13.25184H20.76827a.9806.9806,0,0,0,1.02608.832,1.13157,1.13157,0,0,0,.89945-.40058l.553.69335a1.75683,1.75683,0,0,1-1.47913.67018,1.99417,1.99417,0,0,1-2.04546-2.13388A1.972,1.972,0,0,1,21.63444,10.779,1.92334,1.92334,0,0,1,23.5,12.92828C23.5,13.02073,23.48666,13.15168,23.48,13.25184Zm-2.72508-.701h1.76562a.883.883,0,0,0-1.76562,0Z" transform="translate(-0.5 -8.92244)" fill="#3baf2a"/><polygon points="20.355 0.475 20.355 0.896 20.776 0.475 20.355 0.475" fill="#151b4e"/><path d="M20.3512,9.39791H19.904V10.503h.22892v-.3l.21826.00237a.40377.40377,0,1,0,0-.80753Zm.00869.56716-.21708-.00276V9.63867h.21708a.1632.1632,0,0,1,0,.3264Z" transform="translate(-0.5 -8.92244)" fill="#3baf29"/><polygon points="20.355 1.171 21.051 0.475 21.387 0.475 20.889 0.973 21.374 1.579 21.081 1.579 20.72 1.142 20.358 1.508 20.355 1.171" fill="#3baf29"/><polygon points="21.452 0.475 21.452 0.706 21.78 0.706 21.78 1.579 22.021 1.579 22.021 0.706 22.356 0.706 22.356 0.475 21.452 0.475" fill="#3baf2a"/><polygon points="22.921 0.475 22.921 1.58 22.723 1.58 22.723 0.742 22.591 0.874 22.451 0.735 22.713 0.474 22.921 0.475" fill="#151b4e"/></g></svg>